snake_rectilinear_motion_v1.mot		
version=1		
nRows=24		
nColumns=3		
inDegrees=yes		
		
Units are S.I. units (second, meters, Newtons, ...)		
Angles are in degrees.		
		
endheader		
time	rib0_tx	rib2_tx
0.000	0.000	0.000
0.010	0.000	0.000
0.020	0.000	0.000
0.030	0.000	0.000
0.040	0.000	0.001
0.060	0.000	0.001
0.070	0.000	0.001
0.080	0.000	0.001
0.090	0.000	0.002
0.100	0.000	0.002
0.110	0.000	0.002
0.120	0.000	0.002
0.130	0.000	0.003
0.140	0.000	0.003
0.150	0.000	0.003
0.160	0.000	0.003
0.170	0.000	0.004
0.180	0.000	0.004
0.190	0.000	0.004
0.200	0.000	0.004
0.210	0.000	0.005
0.220	0.000	0.005
0.230	0.000	0.005
0.240	0.000	0.005
